<?xml version="1.0" encoding="iso-8859-1"?>
<!-- Generator: Adobe Illustrator 19.0.0, SVG Export Plug-In . SVG Version: 6.00 Build 0)  -->
<svg version="1.1" id="Layer_1" xmlns="http://www.w3.org/2000/svg" xmlns:xlink="http://www.w3.org/1999/xlink" x="0px" y="0px"
	 viewBox="0 0 512 512" style="enable-background:new 0 0 512 512;" xml:space="preserve">
<g>
	<g>
		<path d="M59.559,60.808v114.939h114.94V60.808H59.559z M143.152,144.4H90.906V92.155h52.246V144.4z"/>
	</g>
</g>
<g>
	<g>
		<path d="M198.53,60.808v114.939h114.94V60.808H198.53z M282.122,144.4h-52.246V92.155h52.246V144.4z"/>
	</g>
</g>
<g>
	<g>
		<path d="M337.501,60.808v114.939h114.94V60.808H337.501z M421.094,144.4h-52.246V92.155h52.246V144.4z"/>
	</g>
</g>
<g>
	<g>
		<path d="M59.559,198.767v114.94h114.94v-114.94H59.559z M143.152,282.36H90.906v-52.246h52.246V282.36z"/>
	</g>
</g>
<g>
	<g>
		<path d="M198.53,198.767v114.94h114.94v-114.94H198.53z M282.122,282.36h-52.246v-52.246h52.246V282.36z"/>
	</g>
</g>
<g>
	<g>
		<path d="M337.501,198.767v114.94h114.94v-114.94H337.501z M421.094,282.36h-52.246v-52.246h52.246V282.36z"/>
	</g>
</g>
<g>
	<g>
		<path d="M59.559,336.253v114.94h114.94v-114.94H59.559z M143.152,419.845H90.906v-52.246h52.246V419.845z"/>
	</g>
</g>
<g>
	<g>
		<path d="M198.53,336.253v114.94h114.94v-114.94H198.53z M282.122,419.845h-52.246v-52.246h52.246V419.845z"/>
	</g>
</g>
<g>
	<g>
		<path d="M337.501,336.253v114.94h114.94v-114.94H337.501z M421.094,419.845h-52.246v-52.246h52.246V419.845z"/>
	</g>
</g>
<g>
	<g>
		<path d="M0,0v512h512V0H0z M480.653,480.653H31.347V31.347h449.306V480.653z"/>
	</g>
</g>
<g>
</g>
<g>
</g>
<g>
</g>
<g>
</g>
<g>
</g>
<g>
</g>
<g>
</g>
<g>
</g>
<g>
</g>
<g>
</g>
<g>
</g>
<g>
</g>
<g>
</g>
<g>
</g>
<g>
</g>
</svg>
